<svg id="visual" viewBox="0 0 960 540" width="960" height="540" xmlns="http://www.w3.org/2000/svg" xmlns:xlink="http://www.w3.org/1999/xlink" version="1.1"><rect x="0" y="0" width="960" height="540" fill="#001220"></rect><path d="M0 348L22.8 346C45.7 344 91.3 340 137 338.3C182.7 336.7 228.3 337.3 274 339.8C319.7 342.3 365.3 346.7 411.2 349.8C457 353 503 355 548.8 349C594.7 343 640.3 329 686 324.8C731.7 320.7 777.3 326.3 823 336.8C868.7 347.3 914.3 362.7 937.2 370.3L960 378L960 541L937.2 541C914.3 541 868.7 541 823 541C777.3 541 731.7 541 686 541C640.3 541 594.7 541 548.8 541C503 541 457 541 411.2 541C365.3 541 319.7 541 274 541C228.3 541 182.7 541 137 541C91.3 541 45.7 541 22.8 541L0 541Z" fill="#fa7268"></path><path d="M0 404L22.8 398.2C45.7 392.3 91.3 380.7 137 380.2C182.7 379.7 228.3 390.3 274 399.2C319.7 408 365.3 415 411.2 416.8C457 418.7 503 415.3 548.8 407.5C594.7 399.7 640.3 387.3 686 378.8C731.7 370.3 777.3 365.7 823 364.5C868.7 363.3 914.3 365.7 937.2 366.8L960 368L960 541L937.2 541C914.3 541 868.7 541 823 541C777.3 541 731.7 541 686 541C640.3 541 594.7 541 548.8 541C503 541 457 541 411.2 541C365.3 541 319.7 541 274 541C228.3 541 182.7 541 137 541C91.3 541 45.7 541 22.8 541L0 541Z" fill="#ef5f67"></path><path d="M0 447L22.8 439.2C45.7 431.3 91.3 415.7 137 416C182.7 416.3 228.3 432.7 274 433C319.7 433.3 365.3 417.7 411.2 414C457 410.3 503 418.7 548.8 419.7C594.7 420.7 640.3 414.3 686 416.7C731.7 419 777.3 430 823 436.5C868.7 443 914.3 445 937.2 446L960 447L960 541L937.2 541C914.3 541 868.7 541 823 541C777.3 541 731.7 541 686 541C640.3 541 594.7 541 548.8 541C503 541 457 541 411.2 541C365.3 541 319.7 541 274 541C228.3 541 182.7 541 137 541C91.3 541 45.7 541 22.8 541L0 541Z" fill="#e34c67"></path><path d="M0 477L22.8 475.8C45.7 474.7 91.3 472.3 137 469.3C182.7 466.3 228.3 462.7 274 459.7C319.7 456.7 365.3 454.3 411.2 454.7C457 455 503 458 548.8 455.5C594.7 453 640.3 445 686 448.7C731.7 452.3 777.3 467.7 823 471.2C868.7 474.7 914.3 466.3 937.2 462.2L960 458L960 541L937.2 541C914.3 541 868.7 541 823 541C777.3 541 731.7 541 686 541C640.3 541 594.7 541 548.8 541C503 541 457 541 411.2 541C365.3 541 319.7 541 274 541C228.3 541 182.7 541 137 541C91.3 541 45.7 541 22.8 541L0 541Z" fill="#d53867"></path><path d="M0 479L22.8 479.7C45.7 480.3 91.3 481.7 137 486.2C182.7 490.7 228.3 498.3 274 501.7C319.7 505 365.3 504 411.2 505.3C457 506.7 503 510.3 548.8 506C594.7 501.7 640.3 489.3 686 486.8C731.7 484.3 777.3 491.7 823 491.7C868.7 491.7 914.3 484.3 937.2 480.7L960 477L960 541L937.2 541C914.3 541 868.7 541 823 541C777.3 541 731.7 541 686 541C640.3 541 594.7 541 548.8 541C503 541 457 541 411.2 541C365.3 541 319.7 541 274 541C228.3 541 182.7 541 137 541C91.3 541 45.7 541 22.8 541L0 541Z" fill="#c62368"></path></svg>